<svg width="30" height="31" viewBox="0 0 30 31" fill="none" xmlns="http://www.w3.org/2000/svg">
<path d="M19.4599 30.3954C20.271 30.3954 20.9286 29.7285 20.9286 28.9059C20.9286 28.0833 20.271 27.4164 19.4599 27.4164H7.22098C5.05799 27.4164 3.30453 25.638 3.30453 23.4443V7.5559C3.30453 5.36217 5.05799 3.58381 7.22098 3.58381H19.4599C20.271 3.58381 20.9286 2.91692 20.9286 2.09427C20.9286 1.27162 20.271 0.604736 19.4599 0.604736H7.22098C3.43574 0.604736 0.367188 3.71688 0.367188 7.5559V23.4443C0.367188 27.2833 3.43574 30.3954 7.22098 30.3954H19.4599ZM21.4011 7.95093C21.9971 7.39294 22.9263 7.43064 23.4764 8.03512L29.3511 14.4898C29.8704 15.0604 29.8704 15.9398 29.3511 16.5104L23.4764 22.9651C22.9263 23.5695 21.9971 23.6072 21.4011 23.0493C20.8051 22.4913 20.7679 21.5489 21.3181 20.9444L24.9175 16.9896H9.66877C8.85765 16.9896 8.2001 16.3227 8.2001 15.5001C8.2001 14.6774 8.85765 14.0106 9.66877 14.0106H24.9175L21.3181 10.0558C20.7679 9.45128 20.8051 8.50891 21.4011 7.95093Z" fill="white"/>
</svg>
